<svg width="179" height="42" viewBox="0 0 179 42" fill="none" xmlns="http://www.w3.org/2000/svg">
<path fill-rule="evenodd" clip-rule="evenodd" d="M162.7 30.039H0L7.48874 0H170.188L162.7 30.039Z" fill="white"/>
<path fill-rule="evenodd" clip-rule="evenodd" d="M162.388 29.7413H103.483L110.825 0.297736H169.73L162.388 29.7413Z" fill="#AC1F25"/>
<path fill-rule="evenodd" clip-rule="evenodd" d="M103.483 29.7413H0.423828L7.76546 0.297736H110.825L103.483 29.7413Z" fill="#221F1F"/>
<path fill-rule="evenodd" clip-rule="evenodd" d="M115.501 13.1631L114.895 14.0423C114.794 13.9407 114.702 13.8636 114.618 13.8111C114.37 13.657 114.079 13.5834 113.753 13.5834C113.28 13.5834 112.836 13.7621 112.419 14.1158C112.002 14.4731 111.743 14.9039 111.634 15.4153C111.61 15.5449 111.596 15.6535 111.596 15.7446C111.596 16.1334 111.725 16.4661 111.984 16.7428C112.244 17.0196 112.576 17.1562 112.979 17.1562C113.315 17.1562 113.645 17.0861 113.967 16.946C114.072 16.9005 114.202 16.8304 114.349 16.7358L114.548 17.615C114.349 17.7341 114.181 17.8182 114.044 17.8742C113.617 18.0528 113.2 18.1439 112.797 18.1439C112.093 18.1439 111.533 17.9443 111.119 17.5415C110.702 17.1386 110.496 16.6132 110.496 15.9582C110.496 15.8006 110.499 15.6885 110.506 15.622C110.513 15.5554 110.531 15.4609 110.555 15.3383C110.709 14.5817 111.119 13.9372 111.788 13.3978C112.457 12.8619 113.154 12.5922 113.883 12.5922C114.321 12.5922 114.723 12.6867 115.084 12.8759C115.207 12.9424 115.343 13.037 115.501 13.1631Z" fill="white"/>
<path fill-rule="evenodd" clip-rule="evenodd" d="M121.256 15.3313C121.091 16.1019 120.706 16.7534 120.093 17.2823C119.442 17.8497 118.685 18.1334 117.83 18.1334C117.14 18.1334 116.587 17.9338 116.163 17.5274C115.739 17.1246 115.529 16.6027 115.529 15.9652C115.529 15.8286 115.533 15.7271 115.536 15.664C115.54 15.601 115.561 15.5029 115.589 15.3698C115.757 14.5887 116.17 13.9337 116.825 13.3978C117.48 12.8654 118.188 12.5992 118.948 12.5992C119.652 12.5992 120.223 12.8023 120.661 13.2051C121.098 13.6079 121.319 14.1298 121.319 14.7673C121.316 14.9355 121.298 15.1246 121.256 15.3313ZM120.163 15.3698C120.195 15.2367 120.209 15.1071 120.209 14.981C120.209 14.5782 120.079 14.2419 119.827 13.9722C119.571 13.7025 119.228 13.5659 118.801 13.5659C118.307 13.5659 117.855 13.7445 117.445 14.1018C117.039 14.4591 116.78 14.8829 116.671 15.3733C116.639 15.5099 116.625 15.643 116.625 15.7726C116.625 16.1894 116.762 16.5292 117.032 16.7814C117.301 17.0371 117.638 17.1632 118.033 17.1632C118.513 17.1632 118.962 16.988 119.375 16.6378C119.792 16.284 120.055 15.8637 120.163 15.3698Z" fill="white"/>
<path fill-rule="evenodd" clip-rule="evenodd" d="M127.988 12.6972L127.585 18.0388H126.503L126.909 14.333L124.881 18.0388H123.957L123.498 14.34L122.335 18.0388H121.256L123.123 12.6972H124.202L124.699 16.7008L126.902 12.6972H127.988Z" fill="white"/>
<path fill-rule="evenodd" clip-rule="evenodd" d="M132.808 14.34C132.699 14.8444 132.472 15.2437 132.121 15.5414C131.771 15.8391 131.361 15.9898 130.892 15.9898H129.838L129.4 18.0423H128.3L129.431 12.7007H131.375C131.834 12.7007 132.195 12.8128 132.458 13.037C132.72 13.2612 132.85 13.5624 132.85 13.9442C132.853 14.0703 132.839 14.1999 132.808 14.34ZM131.761 14.3085C131.775 14.2384 131.785 14.1754 131.785 14.1263C131.785 13.7515 131.526 13.5624 131.007 13.5624H130.352L130.009 15.1771H130.696C130.997 15.1771 131.232 15.1036 131.407 14.953C131.582 14.8024 131.701 14.5887 131.761 14.3085Z" fill="white"/>
<path fill-rule="evenodd" clip-rule="evenodd" d="M138.002 12.6972L137.253 16.242C137.13 16.8199 136.843 17.2753 136.391 17.615C135.939 17.9548 135.396 18.1229 134.759 18.1229C134.198 18.1229 133.764 17.9968 133.456 17.7446C133.148 17.4924 132.993 17.1421 132.993 16.6938C132.993 16.6132 133 16.5257 133.014 16.4381C133.028 16.3505 133.039 16.284 133.046 16.242L133.796 12.6972H134.899L134.163 16.1789C134.153 16.2209 134.146 16.27 134.139 16.326C134.132 16.3821 134.132 16.4311 134.132 16.4731C134.132 16.953 134.409 17.1912 134.958 17.1912C135.27 17.1912 135.533 17.1036 135.747 16.925C135.96 16.7463 136.104 16.4977 136.174 16.1824L136.909 12.7007H138.002V12.6972Z" fill="white"/>
<path fill-rule="evenodd" clip-rule="evenodd" d="M142.097 12.6972L141.614 13.6395H140.566L139.635 18.0388H138.531L139.463 13.6395H138.342L138.538 12.6972H142.097Z" fill="white"/>
<path fill-rule="evenodd" clip-rule="evenodd" d="M145.813 12.6972L145.393 13.5624H143.452L143.169 14.9179H144.98L144.798 15.7586H142.983L142.685 17.1807H144.875L144.447 18.0388H141.4L142.531 12.6972H145.813Z" fill="white"/>
<path fill-rule="evenodd" clip-rule="evenodd" d="M149.778 14.1824C149.687 14.6097 149.481 14.9565 149.162 15.2192C148.843 15.4819 148.472 15.615 148.048 15.615L149.347 18.0423H148.041L147.032 15.7761L146.549 18.0423H145.445L146.577 12.7007H148.384C148.899 12.7007 149.274 12.7988 149.509 12.9985C149.719 13.1736 149.824 13.4258 149.824 13.7656C149.824 13.8952 149.81 14.0353 149.778 14.1824ZM148.759 14.2769C148.77 14.2349 148.773 14.1824 148.773 14.1088C148.773 13.9267 148.71 13.7866 148.584 13.685C148.458 13.5869 148.276 13.5379 148.037 13.5379H147.502L147.172 15.0826H147.733C147.988 15.0826 148.209 15.009 148.395 14.8619C148.584 14.7183 148.703 14.5221 148.759 14.2769Z" fill="white"/>
<path fill-rule="evenodd" clip-rule="evenodd" d="M112.303 20.6343L111.883 21.4995H109.942L109.659 22.855H111.469L111.287 23.6957H109.473L109.175 25.1178H111.364L110.934 25.9759H107.89L109.021 20.6343H112.303Z" fill="white"/>
<path fill-rule="evenodd" clip-rule="evenodd" d="M116.72 23.3279C116.562 24.0775 116.174 24.7079 115.554 25.2158C114.934 25.7237 114.247 25.9759 113.491 25.9759H111.939L113.07 20.6343H114.601C115.273 20.6343 115.809 20.8305 116.209 21.2228C116.59 21.6011 116.783 22.102 116.783 22.7219C116.783 22.876 116.78 22.9846 116.773 23.0512C116.762 23.1177 116.745 23.2123 116.72 23.3279ZM115.589 23.2824C115.62 23.1458 115.634 23.0127 115.634 22.8831C115.634 22.4802 115.508 22.1545 115.256 21.9058C115.004 21.6571 114.667 21.5345 114.251 21.5345H113.984L113.242 25.0337H113.526C114.009 25.0337 114.45 24.8691 114.843 24.5398C115.231 24.2141 115.48 23.7937 115.589 23.2824Z" fill="white"/>
<path fill-rule="evenodd" clip-rule="evenodd" d="M122.366 20.6343L121.617 24.179C121.494 24.757 121.207 25.2123 120.755 25.5521C120.303 25.8919 119.76 26.06 119.123 26.06C118.562 26.06 118.128 25.9339 117.82 25.6817C117.512 25.4295 117.357 25.0792 117.357 24.6309C117.357 24.5503 117.364 24.4628 117.378 24.3752C117.393 24.2876 117.403 24.2211 117.41 24.179L118.16 20.6343H119.263L118.527 24.116C118.517 24.158 118.51 24.2071 118.503 24.2631C118.499 24.3192 118.496 24.3682 118.496 24.4102C118.496 24.8901 118.773 25.1283 119.322 25.1283C119.634 25.1283 119.897 25.0407 120.111 24.8621C120.324 24.6834 120.468 24.4347 120.538 24.1195L121.273 20.6378H122.366V20.6343Z" fill="white"/>
<path fill-rule="evenodd" clip-rule="evenodd" d="M127.606 21.1002L127.004 21.9794C126.902 21.8778 126.811 21.8007 126.727 21.7482C126.478 21.5941 126.188 21.5205 125.862 21.5205C125.389 21.5205 124.941 21.6991 124.527 22.0529C124.111 22.4102 123.851 22.841 123.743 23.3524C123.718 23.482 123.704 23.5906 123.704 23.6817C123.704 24.0705 123.834 24.4032 124.097 24.6799C124.356 24.9566 124.689 25.0932 125.091 25.0932C125.428 25.0932 125.757 25.0232 126.079 24.8831C126.184 24.8375 126.314 24.7675 126.461 24.6729L126.661 25.5521C126.461 25.6712 126.293 25.7553 126.156 25.8113C125.729 25.9899 125.312 26.081 124.909 26.081C124.205 26.081 123.645 25.8813 123.231 25.4785C122.815 25.0757 122.608 24.5503 122.608 23.8953C122.608 23.7377 122.612 23.6256 122.619 23.5591C122.626 23.4925 122.643 23.3979 122.668 23.2753C122.822 22.5188 123.231 21.8743 123.9 21.3349C124.57 20.799 125.267 20.5292 125.995 20.5292C126.433 20.5292 126.836 20.6238 127.197 20.813C127.309 20.8795 127.449 20.9741 127.606 21.1002Z" fill="white"/>
<path fill-rule="evenodd" clip-rule="evenodd" d="M131.631 25.9759H130.444L130.321 24.5538H128.692L127.95 25.9759H126.755L129.753 20.6343H130.902L131.631 25.9759ZM130.307 23.7797L130.139 21.5941L129.025 23.7797H130.307Z" fill="white"/>
<path fill-rule="evenodd" clip-rule="evenodd" d="M136.321 20.6343L135.838 21.5765H134.79L133.859 25.9759H132.755L133.687 21.5765H132.563L132.762 20.6343H136.321Z" fill="white"/>
<path fill-rule="evenodd" clip-rule="evenodd" d="M137.859 20.6343L136.727 25.9759H135.624L136.755 20.6343H137.859Z" fill="white"/>
<path fill-rule="evenodd" clip-rule="evenodd" d="M143.827 23.2683C143.663 24.0389 143.277 24.6904 142.664 25.2193C142.013 25.7868 141.256 26.0705 140.398 26.0705C139.708 26.0705 139.155 25.8673 138.731 25.4645C138.307 25.0617 138.097 24.5398 138.097 23.9023C138.097 23.7657 138.1 23.6641 138.104 23.6011C138.111 23.5381 138.128 23.44 138.156 23.3069C138.325 22.5258 138.738 21.8708 139.393 21.3349C140.048 20.8025 140.755 20.5363 141.515 20.5363C142.22 20.5363 142.79 20.7394 143.228 21.1422C143.666 21.545 143.887 22.0669 143.887 22.7044C143.887 22.876 143.866 23.0617 143.827 23.2683ZM142.731 23.3069C142.762 23.1738 142.776 23.0442 142.776 22.9181C142.776 22.5153 142.65 22.179 142.395 21.9093C142.139 21.6396 141.799 21.503 141.368 21.503C140.875 21.503 140.423 21.6816 140.013 22.0389C139.607 22.3962 139.347 22.82 139.239 23.3104C139.207 23.447 139.193 23.5801 139.193 23.7097C139.193 24.1265 139.33 24.4663 139.6 24.7185C139.869 24.9742 140.205 25.1003 140.601 25.1003C141.081 25.1003 141.53 24.9251 141.943 24.5748C142.363 24.2246 142.626 23.8008 142.731 23.3069Z" fill="white"/>
<path fill-rule="evenodd" clip-rule="evenodd" d="M150.069 20.6343L148.938 25.9759H147.768L146.02 22.1195L145.204 25.9759H144.125L145.256 20.6343H146.451L148.171 24.5468L148.997 20.6343H150.069Z" fill="white"/>
<path fill-rule="evenodd" clip-rule="evenodd" d="M23.0547 22.3787H19.1982L19.0546 19.0266H14.9565L13.1736 22.3787H9.2751L17.9828 7.65688H21.7342L23.0547 22.3787ZM19.2262 16.4521L19.1352 10.6727L16.1299 16.4521H19.2262Z" fill="#F9BB18"/>
<path fill-rule="evenodd" clip-rule="evenodd" d="M36.2528 17.2928C35.843 18.925 35.0549 20.2455 33.885 21.2578C32.7851 22.2035 31.6047 22.6729 30.3438 22.6729C29.6993 22.6729 29.1564 22.5468 28.7115 22.2946C28.3648 22.0984 28.0355 21.7902 27.7308 21.3664L26.8376 24.9321L23.1703 26.4873L26.771 12.0843H29.9094L29.6082 13.2892C30.046 12.8514 30.5609 12.5046 31.1599 12.2454C31.7589 11.9862 32.3858 11.8531 33.0408 11.8531C34.4069 11.8531 35.3911 12.3365 35.9901 13.2997C36.5926 14.2629 36.6801 15.594 36.2528 17.2928ZM32.8272 17.3803C33.0549 16.4661 33.0163 15.7761 32.7081 15.3137C32.3998 14.8514 31.892 14.6167 31.1809 14.6167C30.6485 14.6167 30.1581 14.8549 29.7203 15.3348C29.279 15.8146 28.9497 16.4941 28.7255 17.3803C28.5084 18.249 28.5049 18.918 28.715 19.3839C28.9287 19.8497 29.342 20.0774 29.955 20.0774C30.596 20.0774 31.1879 19.8287 31.7203 19.3278C32.2597 18.8304 32.6275 18.1824 32.8272 17.3803Z" fill="#F9BB18"/>
<path fill-rule="evenodd" clip-rule="evenodd" d="M45.3528 12.0843L43.8256 14.7428H42.5541L40.6452 22.3787H37.3631L39.2756 14.7428H37.7344L44.2354 8.03166L43.2196 12.0843H45.3528Z" fill="#F9BB18"/>
<path fill-rule="evenodd" clip-rule="evenodd" d="M55.2794 15.9652L47.8362 19.4014C47.9798 19.5835 48.1059 19.7201 48.2075 19.8007C48.5227 20.0704 48.873 20.2035 49.2548 20.2035C49.8152 20.2035 50.3616 20.0073 50.901 19.6115C51.0692 19.4854 51.2828 19.2823 51.5455 19.0021L53.3809 20.3506C51.8888 21.9373 50.1935 22.7359 48.295 22.7359C46.7889 22.7359 45.6575 22.2351 44.8974 21.2333C44.1058 20.1895 43.9167 18.8445 44.3265 17.1982C44.7118 15.6605 45.5524 14.375 46.8519 13.3312C48.1514 12.2874 49.528 11.7655 50.9746 11.7655C52.2461 11.7655 53.2688 12.1473 54.0394 12.9109C54.8135 13.678 55.2269 14.6938 55.2794 15.9652ZM52.218 15.0791C52.148 14.8059 51.9623 14.5817 51.6611 14.3995C51.3564 14.2209 50.9921 14.1298 50.5683 14.1298C49.8712 14.1298 49.2022 14.403 48.5612 14.953C47.9202 15.4994 47.5209 16.0773 47.3703 16.6833C47.3493 16.7674 47.3353 16.8654 47.3318 16.9775C47.3283 17.0896 47.3248 17.2052 47.3213 17.3138L52.218 15.0791Z" fill="#F9BB18"/>
<path fill-rule="evenodd" clip-rule="evenodd" d="M65.9065 12.6132L64.4284 15.1666C64.3268 15.0826 64.2357 15.0125 64.1517 14.9565C63.6613 14.6202 63.1219 14.4521 62.5334 14.4521C61.8784 14.4521 61.2339 14.7288 60.6035 15.2857C59.973 15.8426 59.5632 16.4977 59.3705 17.2577C59.1849 18.0038 59.283 18.6308 59.6682 19.1457C60.0535 19.6606 60.607 19.9163 61.332 19.9163C61.7558 19.9163 62.2217 19.8252 62.7331 19.6431C62.8977 19.587 63.1114 19.496 63.3776 19.3699L63.5913 21.7096C63.1639 21.9373 62.8102 22.1055 62.5229 22.2175C61.6297 22.5573 60.7226 22.7254 59.7908 22.7254C58.4108 22.7254 57.339 22.1895 56.5754 21.1142C55.8118 20.0389 55.6191 18.7499 55.9939 17.2437C56.3687 15.7376 57.2094 14.4416 58.5159 13.3522C59.8224 12.2629 61.2304 11.7165 62.7471 11.7165C63.5702 11.7165 64.3373 11.8636 65.0554 12.1613C65.2936 12.2454 65.5738 12.403 65.9065 12.6132Z" fill="#F9BB18"/>
<path fill-rule="evenodd" clip-rule="evenodd" d="M75.0625 22.3787H71.784L73.2902 16.3646C73.4128 15.8742 73.3672 15.4749 73.1606 15.1631C72.9504 14.8549 72.6072 14.7008 72.1273 14.7008C71.5388 14.7008 71.0309 14.8584 70.6036 15.1736C70.1763 15.4889 69.8926 15.9267 69.7525 16.4871L68.2813 22.3752H64.9783L68.3199 9.01592L72.0537 7.28909L70.5651 13.2402C70.9434 12.8233 71.4583 12.4731 72.1098 12.1893C72.7613 11.9056 73.3953 11.762 74.0117 11.762C75.1466 11.762 75.9697 12.0773 76.4811 12.7113C76.9925 13.3417 77.1116 14.2034 76.8384 15.2997L75.0625 22.3787Z" fill="#F9BB18"/>
<path fill-rule="evenodd" clip-rule="evenodd" d="M92.9157 8.58859C92.4148 10.7953 90.8912 12.326 89.5146 12.0002C88.1346 11.6745 87.4235 9.62188 87.9244 7.41169C88.4253 5.20149 89.9455 3.67432 91.3255 3.99657C92.7021 4.32582 93.4131 6.3819 92.9157 8.58859Z" fill="#808184"/>
<path fill-rule="evenodd" clip-rule="evenodd" d="M98.3029 12.2209C96.9018 13.9862 94.8492 14.6622 93.7214 13.7305C92.59 12.7953 92.8107 10.6061 94.2082 8.84429C95.6093 7.07893 97.6584 6.40642 98.7897 7.33813C99.9211 8.26634 99.7039 10.4555 98.3029 12.2209Z" fill="#808184"/>
<path fill-rule="evenodd" clip-rule="evenodd" d="M99.2941 20.0669C97.9071 21.6186 95.9386 22.0914 94.8948 21.1212C93.851 20.151 94.1312 18.1089 95.5147 16.5572C96.9018 15.0055 98.8703 14.5326 99.9141 15.5029C100.951 16.4696 100.674 18.5152 99.2941 20.0669Z" fill="#808184"/>
<path fill-rule="evenodd" clip-rule="evenodd" d="M86.737 11.2016C86.8351 13.2472 85.7703 14.96 84.3622 15.03C82.9506 15.1001 81.7282 13.4994 81.6301 11.4538C81.5355 9.41172 82.5968 7.69541 84.0084 7.62535C85.42 7.5588 86.6389 9.15953 86.737 11.2016Z" fill="#808184"/>
<path fill-rule="evenodd" clip-rule="evenodd" d="M92.7476 17.5239C91.3535 13.9582 88.3167 14.9284 88.3167 14.9284C84.0399 16.1894 82.138 18.8585 82.138 18.8585C79.2307 23.0021 86.1661 23.6431 86.1661 23.6431C86.2992 23.6571 86.3832 23.6431 86.5829 23.6571C86.7055 23.4225 87.0102 23.0582 86.8211 22.2771C86.8211 22.2771 86.1485 20.6553 86.3867 19.538C86.3867 19.538 86.7265 17.9618 87.9244 17.9583C87.9244 17.9583 91.984 18.1404 92.0856 23.0302C92.0646 23.3209 92.2642 24.0635 90.1066 25.468C90.1066 25.468 89.9875 25.5556 89.8229 25.6747C92.9858 27.0267 93.7669 23.8918 93.7669 23.8918C94.4919 20.7814 92.7476 17.5239 92.7476 17.5239ZM88.4393 17.7411C88.019 17.4154 88.04 16.6763 88.4813 16.0843C88.9227 15.4924 89.6197 15.2752 90.0365 15.601C90.4568 15.9267 90.4393 16.6728 89.9945 17.2612C89.5532 17.8532 88.8561 18.0669 88.4393 17.7411ZM90.4779 18.5642C90.1731 18.3261 90.1941 17.7691 90.5339 17.3173C90.8702 16.8654 91.3956 16.6903 91.7003 16.932C92.0085 17.1702 91.984 17.7306 91.6478 18.1824C91.3115 18.6343 90.7861 18.8059 90.4779 18.5642ZM91.5112 19.9128C91.238 19.6991 91.2555 19.2122 91.5497 18.8199C91.8404 18.4276 92.2993 18.2805 92.5725 18.4942C92.8457 18.7043 92.8247 19.1947 92.5339 19.587C92.2362 19.9793 91.7844 20.1264 91.5112 19.9128ZM92.0751 21.2193C91.8649 21.0021 91.935 20.5923 92.2292 20.3051C92.5199 20.0143 92.9227 19.9548 93.1329 20.172C93.3396 20.3891 93.273 20.799 92.9788 21.0897C92.6881 21.3769 92.2817 21.4364 92.0751 21.2193ZM93.1889 22.5503C92.9157 22.778 92.562 22.792 92.3938 22.5818C92.2292 22.3752 92.3168 22.0214 92.5865 21.7937C92.8562 21.566 93.217 21.5555 93.3816 21.7622C93.5462 21.9724 93.4586 22.3261 93.1889 22.5503Z" fill="#808184"/>
<path fill-rule="evenodd" clip-rule="evenodd" d="M90.0365 15.601C89.6162 15.2752 88.9192 15.4924 88.4813 16.0843C88.04 16.6763 88.019 17.4154 88.4393 17.7411C88.8561 18.0669 89.5567 17.8532 89.998 17.2612C90.4393 16.6728 90.4568 15.9267 90.0365 15.601Z" fill="#F9BB18"/>
<path fill-rule="evenodd" clip-rule="evenodd" d="M91.6478 18.1789C91.9875 17.7306 92.0085 17.1702 91.7003 16.9285C91.3956 16.6903 90.8702 16.8619 90.5339 17.3138C90.1906 17.7656 90.1696 18.3261 90.4779 18.5607C90.7861 18.8059 91.308 18.6343 91.6478 18.1789Z" fill="#F9BB18"/>
<path fill-rule="evenodd" clip-rule="evenodd" d="M92.5304 19.587C92.8247 19.1947 92.8422 18.7078 92.569 18.4942C92.2957 18.2805 91.8369 18.4276 91.5462 18.8199C91.2519 19.2122 91.2379 19.6991 91.5076 19.9128C91.7844 20.1264 92.2362 19.9793 92.5304 19.587Z" fill="#F9BB18"/>
<path fill-rule="evenodd" clip-rule="evenodd" d="M92.9788 21.0862C93.273 20.7954 93.3396 20.3856 93.1329 20.1685C92.9227 19.9478 92.5234 20.0073 92.2292 20.3016C91.935 20.5923 91.8649 21.0021 92.0751 21.2158C92.2817 21.4364 92.6881 21.3769 92.9788 21.0862Z" fill="#F9BB18"/>
<path fill-rule="evenodd" clip-rule="evenodd" d="M92.5865 21.7972C92.3168 22.0249 92.2292 22.3787 92.3938 22.5853C92.562 22.7955 92.9157 22.7815 93.1889 22.5538C93.4586 22.3296 93.5462 21.9759 93.3781 21.7657C93.2135 21.5555 92.8562 21.5695 92.5865 21.7972Z" fill="#F9BB18"/>
<path fill-rule="evenodd" clip-rule="evenodd" d="M89.8229 25.6782C89.9875 25.5591 90.1066 25.4715 90.1066 25.4715C92.2677 24.0635 92.0646 23.3209 92.0856 23.0337C91.984 18.1439 87.9244 17.9618 87.9244 17.9618C86.723 17.9653 86.3867 19.5415 86.3867 19.5415C86.1485 20.6588 86.8211 22.2806 86.8211 22.2806C87.0102 23.0617 86.709 23.4225 86.5829 23.6606C86.5829 23.6606 87.991 23.8603 88.73 24.8691C88.73 24.8656 89.322 25.5171 89.8229 25.6782Z" fill="#F9BB18"/>
<path fill-rule="evenodd" clip-rule="evenodd" d="M174.185 0.809125H172.959V3.96855H172.434V0.809125H171.201V0.283722H174.185V0.809125ZM178.809 3.96855H178.283V0.809125H178.266L177.005 3.96855H176.665L175.439 0.809125H175.421V3.96855H174.896V0.283722H175.779L176.837 2.93525L177.929 0.283722H178.805V3.96855H178.809Z" fill="#221F1F"/>
<path d="M3.9125 36.2738C3.96504 35.9095 4.10165 35.6083 4.32231 35.3771C4.54298 35.1459 4.79868 34.9848 5.09291 34.8937C5.38363 34.8062 5.71288 34.7606 6.07716 34.7606C6.31184 34.7606 6.53251 34.7782 6.73216 34.8097C6.93181 34.8412 7.13497 34.8972 7.33813 34.9778C7.54128 35.0584 7.6989 35.181 7.81449 35.3491C7.93008 35.5172 7.98262 35.7204 7.97912 35.9621C7.97912 36.1687 7.94759 36.4244 7.88104 36.7327L7.47473 38.5716C7.4327 38.7292 7.41168 38.9358 7.41168 39.1915C7.41168 39.2616 7.42569 39.3492 7.45722 39.4577H6.20326V39.0059C5.867 39.3842 5.40114 39.5733 4.80569 39.5733C4.32932 39.5733 3.96154 39.4612 3.70934 39.2336C3.45715 39.0059 3.33105 38.7222 3.33105 38.3789C3.33105 37.9446 3.48167 37.5908 3.7829 37.3211C4.08413 37.0514 4.51496 36.8868 5.07189 36.8202C5.20149 36.8027 5.35561 36.7852 5.53424 36.7677C5.71288 36.7502 5.84949 36.7362 5.93705 36.7292C6.02462 36.7186 6.1297 36.7081 6.24529 36.6906C6.36438 36.6731 6.44844 36.6521 6.50098 36.6241C6.55352 36.596 6.60957 36.5645 6.66561 36.5225C6.72165 36.4805 6.76018 36.4314 6.7812 36.3719C6.80222 36.3123 6.81272 36.2423 6.81272 36.1582C6.81272 35.9516 6.73216 35.8079 6.57104 35.7239C6.40992 35.6398 6.22427 35.6013 6.01761 35.6013C5.78293 35.6013 5.57628 35.6573 5.40464 35.7729C5.22951 35.8885 5.12443 36.0531 5.0894 36.2738H3.9125ZM6.56754 37.2651C6.37839 37.3771 6.02462 37.4507 5.50622 37.4857C5.2225 37.5138 4.99833 37.5803 4.8302 37.6854C4.66208 37.787 4.57801 37.9691 4.57801 38.2283C4.57801 38.3929 4.64456 38.519 4.77766 38.6101C4.91077 38.6977 5.07539 38.7432 5.26804 38.7432C5.61481 38.7432 5.87751 38.6486 6.04914 38.4595C6.22427 38.2703 6.35387 38.0216 6.44144 37.7064L6.56754 37.2651Z" fill="#231F20"/>
<path d="M9.2541 34.8867H10.466L10.3434 35.4542L10.3609 35.4717C10.6307 34.9988 11.0895 34.7641 11.7305 34.7641C12.2769 34.7641 12.7042 34.9253 13.009 35.2475C13.3137 35.5698 13.4643 36.0076 13.4643 36.568C13.4643 36.9568 13.4118 37.3281 13.3102 37.6784C13.2086 38.0287 13.058 38.3474 12.8584 38.6346C12.6622 38.9218 12.3995 39.1495 12.0773 39.3211C11.755 39.4928 11.3872 39.5768 10.9809 39.5768C10.6972 39.5768 10.4345 39.5138 10.1928 39.3912C9.95113 39.2686 9.7865 39.0865 9.69894 38.8518H9.66741L9.19105 41.062H7.94409L9.2541 34.8867ZM11.3137 35.7099C11.0194 35.7099 10.7638 35.8185 10.5431 36.0356C10.3259 36.2528 10.1683 36.505 10.0737 36.7922C9.97915 37.0794 9.93362 37.3631 9.93362 37.6469C9.93362 37.9516 10.0107 38.1933 10.1648 38.3719C10.3189 38.547 10.5431 38.6381 10.8373 38.6381C11.1385 38.6381 11.3942 38.533 11.6114 38.3194C11.8251 38.1057 11.9792 37.8605 12.0703 37.5803C12.1613 37.3001 12.2069 37.0164 12.2069 36.7257C12.2069 36.4384 12.1298 36.1967 11.9722 36.0006C11.8146 35.8044 11.5939 35.7099 11.3137 35.7099Z" fill="#231F20"/>
<path d="M16.3155 34.8868H17.2157L17.023 35.7274H16.1299L15.6605 38.0006C15.636 38.0882 15.6255 38.1583 15.6255 38.2143C15.6255 38.3159 15.65 38.3894 15.699 38.4455C15.7481 38.498 15.8006 38.5295 15.8496 38.5366C15.8987 38.5471 15.9652 38.5506 16.0493 38.5506C16.2034 38.5506 16.354 38.5401 16.5011 38.5225L16.2875 39.4858C16.0038 39.5138 15.7411 39.5313 15.4994 39.5313C15.1456 39.5313 14.8549 39.4613 14.6272 39.3247C14.3995 39.188 14.291 38.9499 14.305 38.6136C14.305 38.519 14.326 38.3754 14.368 38.1793L14.8794 35.7309H14.0563L14.2524 34.8903H15.0615L15.3453 33.5032H16.5992L16.3155 34.8868Z" fill="#231F20"/>
<path d="M18.4276 37.4752C18.4206 37.4927 18.4171 37.5208 18.4171 37.5558V37.6258V37.7414C18.4171 38.0181 18.5012 38.2353 18.6728 38.3964C18.8444 38.5541 19.0931 38.6346 19.4259 38.6346C19.58 38.6346 19.7201 38.5996 19.8497 38.5295C19.9793 38.4595 20.0774 38.3859 20.1404 38.3124C20.2035 38.2388 20.2805 38.1372 20.3611 38.0076H21.6151C21.4084 38.5435 21.1212 38.9393 20.7569 39.1915C20.3926 39.4437 19.8882 39.5698 19.2437 39.5698C18.6133 39.5698 18.1159 39.3982 17.7551 39.0584C17.3943 38.7152 17.2122 38.2248 17.2122 37.5838C17.2122 36.8167 17.4434 36.1547 17.9092 35.5978C18.3751 35.0409 18.981 34.7641 19.7306 34.7641C20.3856 34.7641 20.904 34.9358 21.2858 35.2755C21.6676 35.6188 21.8603 36.1127 21.8603 36.7607C21.8603 36.9673 21.8357 37.2055 21.7902 37.4752H18.4276ZM20.6553 36.6801C20.6553 36.0321 20.3716 35.7064 19.8077 35.7064C19.2052 35.7064 18.7919 36.0321 18.5607 36.6801H20.6553Z" fill="#231F20"/>
<path d="M25.6677 36.47C25.6677 36.2038 25.6011 36.0111 25.4645 35.892C25.3279 35.7729 25.1178 35.7099 24.827 35.7099C24.6029 35.7099 24.4032 35.7729 24.2316 35.899C24.0564 36.0251 23.9233 36.1897 23.8288 36.3894C23.7342 36.589 23.6641 36.7957 23.6151 37.0094C23.5696 37.223 23.545 37.4332 23.545 37.6469C23.545 37.9411 23.6151 38.1793 23.7517 38.3614C23.8918 38.5435 24.109 38.6346 24.4102 38.6346C24.9111 38.6346 25.2509 38.3509 25.426 37.787H26.6799C26.2841 38.9779 25.4995 39.5733 24.3191 39.5733C22.9636 39.5733 22.2876 38.9218 22.2876 37.6188C22.2876 36.8132 22.5188 36.1337 22.9811 35.5873C23.4435 35.0409 24.074 34.7641 24.8691 34.7641C25.4645 34.7641 25.9514 34.9043 26.3332 35.1845C26.7115 35.4647 26.9076 35.892 26.9216 36.47H25.6677Z" fill="#231F20"/>
<path d="M28.3262 33.1459H29.5802L29.1108 35.4192H29.1283C29.2509 35.2475 29.4436 35.0969 29.6993 34.9638C29.955 34.8307 30.2702 34.7642 30.6415 34.7642C31.5312 34.7642 31.976 35.174 31.976 35.9936C31.976 36.0531 31.9655 36.1337 31.948 36.2353C31.9305 36.3369 31.9095 36.4489 31.8849 36.561C31.8604 36.6766 31.8464 36.7467 31.8394 36.7782L31.272 39.4578H30.018L30.5749 36.7782C30.6275 36.4945 30.6555 36.3088 30.6555 36.2213C30.6555 36.0917 30.5925 35.9796 30.4699 35.8885C30.3473 35.7974 30.2072 35.7519 30.053 35.7519C29.7063 35.7519 29.4261 35.8745 29.2124 36.1197C28.9987 36.3649 28.8516 36.6661 28.7711 37.0269L28.2597 39.4578H27.0127L28.3262 33.1459Z" fill="#231F20"/>
<path d="M34.8132 39.4578H33.3806L32.7816 34.8867H34.0706L34.3543 38.1407H34.3719L35.9901 34.8867H37.3176L34.8132 39.4578Z" fill="#231F20"/>
<path d="M37.9691 34.8867H39.2336L38.2598 39.4578H37.0059L37.9691 34.8867ZM39.3737 34.1792H38.1092L38.3404 33.1459H39.6049L39.3737 34.1792Z" fill="#231F20"/>
<path d="M40.6907 37.4752C40.6837 37.4927 40.6802 37.5208 40.6802 37.5558V37.6258V37.7414C40.6802 38.0181 40.7642 38.2353 40.9359 38.3964C41.1075 38.5541 41.3562 38.6346 41.6889 38.6346C41.8431 38.6346 41.9832 38.5996 42.1128 38.5295C42.2424 38.4595 42.3404 38.3859 42.4035 38.3124C42.47 38.2388 42.5436 38.1372 42.6242 38.0076H43.8781C43.6715 38.5435 43.3842 38.9393 43.02 39.1915C42.6557 39.4437 42.1513 39.5698 41.5068 39.5698C40.8763 39.5698 40.3789 39.3982 40.0182 39.0584C39.6574 38.7152 39.4753 38.2248 39.4753 37.5838C39.4753 36.8167 39.7064 36.1547 40.1723 35.5978C40.6381 35.0409 41.2441 34.7641 41.9937 34.7641C42.6487 34.7641 43.1671 34.9358 43.5489 35.2755C43.9307 35.6188 44.1233 36.1127 44.1233 36.7607C44.1233 36.9673 44.0988 37.2055 44.0533 37.4752H40.6907ZM42.9184 36.6801C42.9184 36.0321 42.6347 35.7064 42.0707 35.7064C41.4683 35.7064 41.055 36.0321 40.8238 36.6801H42.9184Z" fill="#231F20"/>
<path d="M46.922 34.8868H47.8222L47.6295 35.7274H46.7363L46.267 38.0006C46.2424 38.0882 46.2319 38.1583 46.2319 38.2143C46.2319 38.3159 46.2565 38.3894 46.3055 38.4455C46.3545 38.498 46.4071 38.5295 46.4561 38.5366C46.5051 38.5471 46.5717 38.5506 46.6558 38.5506C46.8099 38.5506 46.9605 38.5401 47.1076 38.5225L46.8939 39.4858C46.6102 39.5138 46.3475 39.5313 46.1058 39.5313C45.7521 39.5313 45.4613 39.4613 45.2337 39.3247C45.006 39.188 44.8974 38.9499 44.9114 38.6136C44.9114 38.519 44.9324 38.3754 44.9745 38.1793L45.4859 35.7309H44.6627L44.8589 34.8903H45.6645L45.9482 33.5032H47.2022L46.922 34.8868Z" fill="#231F20"/>
<path d="M48.5857 34.8867H49.7872L49.647 35.5242H49.6646C50.0709 35.0163 50.6033 34.7641 51.2653 34.7641C52.155 34.7641 52.5998 35.174 52.5998 35.9936C52.5998 36.0531 52.5893 36.1337 52.5718 36.2353C52.5543 36.3369 52.5333 36.4489 52.5087 36.561C52.4842 36.6766 52.4702 36.7467 52.4632 36.7782L51.8958 39.4577H50.6418L51.1987 36.7782C51.2513 36.4945 51.2793 36.3088 51.2793 36.2213C51.2793 36.0917 51.2162 35.9796 51.0937 35.8885C50.9711 35.7974 50.831 35.7519 50.6768 35.7519C50.3301 35.7519 50.0499 35.8745 49.8362 36.1197C49.6225 36.3649 49.4754 36.6661 49.3949 37.0269L48.8835 39.4577H47.6365L48.5857 34.8867Z" fill="#231F20"/>
<path d="M53.6681 36.2738C53.7207 35.9095 53.8573 35.6083 54.078 35.3771C54.2986 35.1459 54.5543 34.9848 54.8486 34.8937C55.1393 34.8062 55.4685 34.7606 55.8328 34.7606C56.0675 34.7606 56.2882 34.7782 56.4878 34.8097C56.6875 34.8412 56.8906 34.8972 57.0938 34.9778C57.2969 35.0584 57.4546 35.181 57.5701 35.3491C57.6857 35.5172 57.7383 35.7204 57.7348 35.9621C57.7348 36.1687 57.7032 36.4244 57.6367 36.7327L57.2304 38.5716C57.1883 38.7292 57.1673 38.9358 57.1673 39.1915C57.1673 39.2616 57.1813 39.3492 57.2129 39.4577H55.9589V39.0059C55.6226 39.3842 55.1568 39.5733 54.5613 39.5733C54.085 39.5733 53.7172 39.4612 53.465 39.2336C53.2128 39.0059 53.0867 38.7222 53.0867 38.3789C53.0867 37.9446 53.2373 37.5908 53.5385 37.3211C53.8398 37.0514 54.2706 36.8868 54.8275 36.8202C54.9571 36.8027 55.1113 36.7852 55.2899 36.7677C55.4685 36.7502 55.6051 36.7362 55.6927 36.7292C55.7803 36.7186 55.8853 36.7081 56.0009 36.6906C56.12 36.6731 56.2041 36.6521 56.2566 36.6241C56.3092 36.596 56.3652 36.5645 56.4213 36.5225C56.4773 36.4805 56.5158 36.4314 56.5368 36.3719C56.5579 36.3123 56.5684 36.2423 56.5684 36.1582C56.5684 35.9516 56.4878 35.8079 56.3267 35.7239C56.1656 35.6398 55.9799 35.6013 55.7733 35.6013C55.5386 35.6013 55.3319 35.6573 55.1603 35.7729C54.9852 35.8885 54.8836 36.0531 54.845 36.2738H53.6681ZM56.3197 37.2651C56.1305 37.3771 55.7768 37.4507 55.2584 37.4857C54.9746 37.5138 54.7505 37.5803 54.5823 37.6854C54.4142 37.787 54.3302 37.9691 54.3302 38.2283C54.3302 38.3929 54.3967 38.519 54.5298 38.6101C54.6629 38.6977 54.8275 38.7432 55.0202 38.7432C55.367 38.7432 55.6297 38.6486 55.8013 38.4595C55.9764 38.2703 56.106 38.0216 56.1936 37.7064L56.3197 37.2651Z" fill="#231F20"/>
<path d="M59.0588 34.8867H60.2602L60.1201 35.5312H60.1376C60.5019 35.0198 61.0378 34.7606 61.7383 34.7606C62.3758 34.7606 62.7436 35.0268 62.8417 35.5558C62.9958 35.3211 63.2165 35.1284 63.5107 34.9813C63.8014 34.8342 64.0956 34.7606 64.3899 34.7606C64.7787 34.7606 65.1079 34.8622 65.3741 35.0619C65.6438 35.2615 65.7769 35.5487 65.7769 35.92C65.7769 36.0952 65.7314 36.3789 65.6438 36.7677L65.0799 39.4542H63.8259L64.4284 36.5645C64.4529 36.4629 64.4634 36.3544 64.4634 36.2388C64.4634 36.1022 64.4109 35.9901 64.3093 35.8955C64.2077 35.8009 64.0746 35.7554 63.917 35.7554C63.6088 35.7554 63.3531 35.885 63.1464 36.1407C62.9398 36.3964 62.8031 36.6871 62.7401 37.0129L62.2287 39.4612H60.9642L61.5667 36.5715C61.5912 36.47 61.6017 36.3614 61.6017 36.2458C61.6017 36.1092 61.5492 35.9971 61.4476 35.9025C61.346 35.8079 61.2129 35.7624 61.0553 35.7624C60.7506 35.7624 60.4914 35.892 60.2847 36.1477C60.0781 36.4034 59.9415 36.6941 59.8784 37.0199L59.367 39.4683H58.1201L59.0588 34.8867Z" fill="#231F20"/>
<path d="M66.4039 38.0952H67.8015L67.5108 39.4578H66.1237L66.4039 38.0952Z" fill="#231F20"/>
<path d="M72.1483 36.47C72.1483 36.2038 72.0818 36.0111 71.9452 35.892C71.8085 35.7729 71.5984 35.7099 71.3077 35.7099C71.0835 35.7099 70.8838 35.7729 70.7122 35.899C70.5371 36.0251 70.404 36.1897 70.3094 36.3894C70.2148 36.589 70.1448 36.7957 70.0957 37.0094C70.0502 37.223 70.0257 37.4332 70.0257 37.6469C70.0257 37.9411 70.0957 38.1793 70.2323 38.3614C70.3724 38.5435 70.5896 38.6346 70.8908 38.6346C71.3917 38.6346 71.7315 38.3509 71.9066 37.787H73.1606C72.7648 38.9779 71.9802 39.5733 70.7998 39.5733C69.4442 39.5733 68.7682 38.9218 68.7682 37.6188C68.7682 36.8132 68.9994 36.1337 69.4617 35.5873C69.9241 35.0409 70.5546 34.7641 71.3497 34.7641C71.9452 34.7641 72.432 34.9043 72.8138 35.1845C73.1921 35.4647 73.3883 35.892 73.4023 36.47H72.1483Z" fill="#231F20"/>
<path d="M73.686 37.6083C73.686 36.8062 73.9277 36.1337 74.4076 35.5838C74.8874 35.0374 75.5214 34.7606 76.313 34.7606C76.961 34.7606 77.4794 34.9253 77.8647 35.251C78.25 35.5768 78.4427 36.0601 78.4427 36.6976C78.4427 37.5243 78.201 38.2073 77.7211 38.7537C77.2412 39.3001 76.5932 39.5698 75.7806 39.5698C75.1256 39.5698 74.6142 39.4017 74.2429 39.0689C73.8717 38.7397 73.686 38.2528 73.686 37.6083ZM74.9435 37.6083C74.9435 37.8955 75.024 38.1407 75.1817 38.3369C75.3393 38.533 75.5599 38.6346 75.8437 38.6346C76.1379 38.6346 76.3901 38.526 76.6037 38.3089C76.8174 38.0917 76.9645 37.843 77.0556 37.5628C77.1432 37.2826 77.1887 37.0024 77.1887 36.7186C77.1887 36.0461 76.8805 35.7099 76.271 35.7099C75.8542 35.7099 75.5284 35.913 75.2937 36.3193C75.0591 36.7256 74.9435 37.1565 74.9435 37.6083Z" fill="#231F20"/>
<path d="M79.6896 34.8867H80.891L80.7509 35.5312H80.7684C81.1327 35.0198 81.6686 34.7606 82.3692 34.7606C83.0066 34.7606 83.3744 35.0268 83.4725 35.5558C83.6266 35.3211 83.8473 35.1284 84.1415 34.9813C84.4322 34.8342 84.7265 34.7606 85.0207 34.7606C85.4095 34.7606 85.7387 34.8622 86.0049 35.0619C86.2746 35.2615 86.4077 35.5487 86.4077 35.92C86.4077 36.0952 86.3622 36.3789 86.2746 36.7677L85.7072 39.4542H84.4532L85.0557 36.5645C85.0802 36.4629 85.0907 36.3544 85.0907 36.2388C85.0907 36.1022 85.0382 35.9901 84.9366 35.8955C84.835 35.8009 84.7019 35.7554 84.5443 35.7554C84.2361 35.7554 83.9804 35.885 83.7737 36.1407C83.5671 36.3964 83.4305 36.6871 83.3674 37.0129L82.856 39.4612H81.5916L82.194 36.5715C82.2185 36.47 82.229 36.3614 82.229 36.2458C82.229 36.1092 82.1765 35.9971 82.0749 35.9025C81.9733 35.8079 81.8402 35.7624 81.6826 35.7624C81.3779 35.7624 81.1187 35.892 80.912 36.1477C80.7054 36.4034 80.5688 36.6941 80.5057 37.0199L79.9943 39.4683H78.7474L79.6896 34.8867Z" fill="#231F20"/>
<path d="M87.0347 38.0952H88.4323L88.1416 39.4578H86.7545L87.0347 38.0952Z" fill="#231F20"/>
<path d="M91.6127 39.4578H90.1801L89.5777 34.8867H90.8667L91.1504 38.1407H91.1679L92.7861 34.8867H94.1136L91.6127 39.4578Z" fill="#231F20"/>
<path d="M94.7511 34.8867H95.9526L95.8125 35.5242H95.83C96.2363 35.0163 96.7687 34.7641 97.4307 34.7641C98.3204 34.7641 98.7652 35.174 98.7652 35.9936C98.7652 36.0531 98.7547 36.1337 98.7372 36.2353C98.7197 36.3369 98.6987 36.4489 98.6741 36.561C98.6496 36.6766 98.6356 36.7467 98.6286 36.7782L98.0647 39.4577H96.8107L97.3676 36.7782C97.4202 36.4945 97.4482 36.3088 97.4482 36.2213C97.4482 36.0917 97.3852 35.9796 97.2626 35.8885C97.14 35.7974 96.9999 35.7519 96.8457 35.7519C96.499 35.7519 96.2188 35.8745 96.0051 36.1197C95.7914 36.3649 95.6443 36.6661 95.5638 37.0269L95.0524 39.4577H93.8054L94.7511 34.8867Z" fill="#231F20"/>
</svg>
