<svg width="12" height="15" viewBox="0 0 12 15" fill="none" xmlns="http://www.w3.org/2000/svg">
<path fill-rule="evenodd" clip-rule="evenodd" d="M5.625 7.03125C4.84828 7.03125 4.21875 6.40172 4.21875 5.625C4.21875 4.84828 4.84828 4.21875 5.625 4.21875C6.40172 4.21875 7.03125 4.84828 7.03125 5.625C7.03125 6.40172 6.40172 7.03125 5.625 7.03125ZM5.625 3.28125C4.33078 3.28125 3.28125 4.33031 3.28125 5.625C3.28125 6.91969 4.33078 7.96875 5.625 7.96875C6.91922 7.96875 7.96875 6.91969 7.96875 5.625C7.96875 4.33031 6.91922 3.28125 5.625 3.28125ZM5.625 13.5937C4.84547 13.598 0.9375 7.58484 0.9375 5.625C0.9375 3.03656 3.03609 0.9375 5.625 0.9375C8.2139 0.9375 10.3125 3.03656 10.3125 5.625C10.3125 7.55859 6.39234 13.598 5.625 13.5937ZM5.625 0C2.51859 0 0 2.51859 0 5.625C0 7.97719 4.68984 15.0052 5.625 15C6.54562 15.0052 11.25 7.94531 11.25 5.625C11.25 2.51859 8.7314 0 5.625 0Z" fill="#274EDB"/>
</svg>
